<?xml version="1.0" encoding="UTF-8" standalone="no"?><!DOCTYPE svg PUBLIC "-//W3C//DTD SVG 1.1//EN" "http://www.w3.org/Graphics/SVG/1.1/DTD/svg11.dtd"><svg width="100%" height="100%" viewBox="0 0 159 119" version="1.1" xmlns="http://www.w3.org/2000/svg" xmlns:xlink="http://www.w3.org/1999/xlink" xml:space="preserve" xmlns:serif="http://www.serif.com/" style="fill-rule:evenodd;clip-rule:evenodd;stroke-linecap:round;stroke-linejoin:round;stroke-miterlimit:1.5;"><rect id="Artboard3" x="0" y="0" width="158.694" height="118.941" style="fill:none;"/><clipPath id="_clip1"><rect x="0" y="0" width="158.694" height="118.941"/></clipPath><g clip-path="url(#_clip1)"><g><circle cx="51.57" cy="14.821" r="11.377" style="fill:none;stroke:#ff0600;stroke-width:7.09px;"/><circle cx="99.576" cy="14.821" r="11.377" style="fill:none;stroke:#ff0600;stroke-width:7.09px;"/><circle cx="51.57" cy="103.033" r="11.377" style="fill:none;stroke:#ff0600;stroke-width:7.09px;"/><circle cx="99.576" cy="103.033" r="11.377" style="fill:none;stroke:#ff0600;stroke-width:7.09px;"/><circle cx="143.742" cy="103.033" r="11.377" style="fill:none;stroke:#ff0600;stroke-width:7.09px;"/><path d="M26.403,58.927c0,6.279 -5.098,11.377 -11.378,11.377c-6.279,0 -11.377,-5.098 -11.377,-11.377c0,-6.279 5.098,-11.377 11.377,-11.377c6.28,0 11.378,5.098 11.378,11.377Z" style="fill:none;stroke:#ff0600;stroke-width:7.09px;"/><path d="M51.57,26.199l0,65.456" style="fill:none;stroke:#ff0600;stroke-width:7.09px;"/><path d="M99.576,26.199l0,65.456" style="fill:none;stroke:#ff0600;stroke-width:7.09px;"/><path d="M143.742,89.404l0,-30.477l-117.339,0" style="fill:none;stroke:#ff0600;stroke-width:7.09px;"/></g></g></svg>