<?xml version="1.0" encoding="UTF-8" standalone="no"?><!DOCTYPE svg PUBLIC "-//W3C//DTD SVG 1.1//EN" "http://www.w3.org/Graphics/SVG/1.1/DTD/svg11.dtd"><svg width="100%" height="100%" viewBox="0 0 90 156" version="1.1" xmlns="http://www.w3.org/2000/svg" xmlns:xlink="http://www.w3.org/1999/xlink" xml:space="preserve" xmlns:serif="http://www.serif.com/" style="fill-rule:evenodd;clip-rule:evenodd;stroke-linecap:round;stroke-linejoin:round;stroke-miterlimit:1.5;"><rect id="Artboard2" x="0" y="0" width="89.173" height="155.72" style="fill:none;"/><g><g><path d="M77.437,152.103l-64.455,0c-1.457,0 -2.855,-0.579 -3.886,-1.609c-1.03,-1.031 -1.609,-2.429 -1.609,-3.886l0,-13.33c0,-1.458 0.579,-2.855 1.609,-3.886c1.031,-1.031 2.429,-1.61 3.886,-1.61l64.455,0c1.458,0 2.856,0.579 3.886,1.61c1.031,1.031 1.61,2.428 1.61,3.886l0,13.33c0,1.457 -0.579,2.855 -1.61,3.886c-1.03,1.03 -2.428,1.609 -3.886,1.609Zm-11.779,-108.013c17.577,-0.487 25.165,71.774 8.016,73.708c-1.313,1.378 -3.133,2.158 -5.037,2.158l-46.855,0c-1.903,0 -3.723,-0.78 -5.037,-2.158c-18.59,-2.242 -9.686,-74.408 8.016,-73.708l40.897,0Zm-13.73,-40.929c3.611,0 6.61,2.785 6.876,6.386c0.446,6.028 1.115,11.806 1.584,18.147c0.142,1.911 -0.519,3.796 -1.824,5.2c-1.304,1.405 -3.135,2.203 -5.052,2.203l-16.605,0c-1.917,0 -3.747,-0.798 -5.052,-2.203c-1.304,-1.404 -1.965,-3.289 -1.824,-5.2c0.47,-6.341 1.138,-12.119 1.584,-18.147c0.267,-3.601 3.266,-6.386 6.876,-6.386l13.437,0Z" style="fill:none;stroke:#ff0d00;stroke-width:5.99px;"/><path d="M27.795,107.652c-6.36,-9.999 -6.352,-23.753 -2.367,-39.853c2.104,-8.804 10,-14.994 19.051,-14.936c0.735,-0.017 1.471,-0.013 2.202,-0.008c9.072,0.058 16.902,6.37 18.885,15.222c2.577,11.412 2.383,24.046 -2.601,38.794" style="fill:none;stroke:#ff0d00;stroke-width:5.99px;"/><path d="M17.245,135.599l53.646,0" style="fill:none;stroke:#ff0d00;stroke-width:5.99px;"/></g></g></svg>